nColumns=19
nRows=32
DataType=double
version=3
OpenSimVersion=4.1
endheader
time	ground_force_calcn_r_vx	ground_force_calcn_r_vy	ground_force_calcn_r_vz	ground_force_calcn_r_px	ground_force_calcn_r_py	ground_force_calcn_r_pz	ground_force_calcn_r_mx	ground_force_calcn_r_my	ground_force_calcn_r_mz	ground_force_calcn_l_vx	ground_force_calcn_l_vy	ground_force_calcn_l_vz	ground_force_calcn_l_px	ground_force_calcn_l_py	ground_force_calcn_l_pz	ground_force_calcn_l_mx	ground_force_calcn_l_my	ground_force_calcn_l_mz
9.75	-5.07313	256.467	-49.8533	-0.253019	0	-0.455025	0.0670627	-3.39029	0.659021	6.5906	308.534	50.2618	-0.247924	0	-0.828044	0.0606523	2.83939	0.462551
9.76	-4.89627	258.805	-49.7266	-0.251526	0	-0.454514	0.0606236	-3.20442	0.615695	6.35905	304.551	49.222	-0.247345	0	-0.828134	0.0584369	2.79869	0.452328
9.77	-4.68839	261.557	-49.5043	-0.250027	0	-0.454078	0.0539297	-3.00865	0.56944	6.13451	301.097	48.1668	-0.246741	0	-0.828182	0.0560952	2.75329	0.440446
9.78	-4.4434	264.686	-49.1953	-0.248543	0	-0.453718	0.0471149	-2.80656	0.521635	5.91307	298.169	47.1161	-0.246132	0	-0.828189	0.0536364	2.70464	0.427381
9.79	-4.15944	268.148	-48.8117	-0.247098	0	-0.453427	0.0403595	-2.60186	0.473625	5.68825	295.771	46.0886	-0.245533	0	-0.828159	0.0510437	2.65411	0.413577
9.8	-3.8385	271.906	-48.3679	-0.245711	0	-0.453198	0.0338586	-2.39843	0.426644	5.45241	293.904	45.1005	-0.244957	0	-0.828093	0.0482885	2.60293	0.399426
9.81	-3.48628	275.937	-47.8814	-0.244397	0	-0.453022	0.027797	-2.20012	0.38177	5.19741	292.572	44.1652	-0.24442	0	-0.827993	0.0453357	2.55203	0.385242
9.82	-3.11162	280.234	-47.372	-0.243168	0	-0.452891	0.0223252	-2.01062	0.339885	4.91782	291.778	43.292	-0.243934	0	-0.82786	0.0421748	2.50226	0.371268
9.83	-2.72764	284.814	-46.8628	-0.242038	0	-0.452801	0.0175558	-1.83314	0.301621	4.61323	291.52	42.4862	-0.24351	0	-0.827695	0.0388411	2.45445	0.357713
9.84	-2.3522	289.722	-46.3786	-0.241016	0	-0.452747	0.0135596	-1.67015	0.267357	4.28808	291.786	41.75	-0.243163	0	-0.8275	0.035408	2.40937	0.344742
9.85	-2.005	295.015	-45.9437	-0.240113	0	-0.452727	0.010354	-1.52349	0.237258	3.95008	292.555	41.0827	-0.242901	0	-0.827278	0.0319673	2.3676	0.332475
9.86	-1.70478	300.744	-45.5804	-0.239337	0	-0.452736	0.00790385	-1.39433	0.211323	3.60756	293.789	40.4813	-0.242737	0	-0.827032	0.0286056	2.32956	0.32099
9.87	-1.46686	306.94	-45.3062	-0.23869	0	-0.452774	0.00613236	-1.2832	0.189408	3.26673	295.44	39.9417	-0.242672	0	-0.826765	0.0253794	2.29529	0.31031
9.88	-1.29994	313.599	-45.1325	-0.238173	0	-0.452837	0.00493276	-1.18998	0.171259	2.93042	297.449	39.4603	-0.242704	0	-0.82648	0.0223089	2.26444	0.300406
9.89	-1.20721	320.679	-45.0638	-0.237784	0	-0.45292	0.00419369	-1.11399	0.156545	2.59857	299.75	39.0331	-0.242824	0	-0.826184	0.019387	2.23633	0.291212
9.9	-1.18876	328.108	-45.0981	-0.237513	0	-0.45302	0.00381907	-1.0541	0.144885	2.26854	302.274	38.656	-0.24302	0	-0.825878	0.0165871	2.21016	0.282645
9.91	-1.24345	335.796	-45.2265	-0.237351	0	-0.453134	0.00373565	-1.00882	0.135872	1.9347	304.949	38.3229	-0.243278	0	-0.825568	0.0138636	2.1852	0.274613
9.92	-1.36923	343.632	-45.434	-0.237288	0	-0.453258	0.00389092	-0.976493	0.129109	1.58953	307.711	38.0257	-0.243582	0	-0.825252	0.0111627	2.16094	0.26704
9.93	-1.55993	351.49	-45.6997	-0.237311	0	-0.453392	0.00424081	-0.955556	0.124239	1.22608	310.498	37.7556	-0.243917	0	-0.824936	0.00843938	2.13723	0.259881
9.94	-1.80204	359.227	-45.9988	-0.237412	0	-0.453531	0.00473804	-0.944504	0.120943	0.840827	313.254	37.5043	-0.244271	0	-0.824622	0.00567493	2.11422	0.253125
9.95	-2.07488	366.695	-46.3059	-0.237584	0	-0.453674	0.00533006	-0.941986	0.118953	0.436222	315.926	37.2652	-0.244636	0	-0.824313	0.00288919	2.09245	0.246816
9.96	-2.35289	373.744	-46.5958	-0.237822	0	-0.453819	0.00596121	-0.946905	0.118054	0.0194966	318.466	37.0347	-0.245004	0	-0.824013	0.000126893	2.07273	0.24104
9.97	-2.60853	380.236	-46.846	-0.23812	0	-0.453962	0.00657508	-0.958426	0.11808	-0.399503	320.829	36.8132	-0.24537	0	-0.823726	-0.00256022	2.05603	0.235917
9.98	-2.81574	386.056	-47.0374	-0.238477	0	-0.454104	0.00711757	-0.975862	0.1189	-0.809503	322.977	36.6038	-0.24573	0	-0.82346	-0.00512165	2.04345	0.231589
9.99	-2.94989	391.114	-47.1543	-0.23889	0	-0.454241	0.00753197	-0.998632	0.120399	-1.19795	324.88	36.4111	-0.246086	0	-0.823217	-0.00750757	2.03602	0.228189
10	-2.98621	395.352	-47.1853	-0.23936	0	-0.454375	0.00775202	-1.02631	0.12249	-1.5487	326.517	36.2381	-0.246441	0	-0.823001	-0.00965112	2.03477	0.225826
10.01	-2.9001	398.742	-47.1247	-0.239887	0	-0.454504	0.00769963	-1.05864	0.125114	-1.84066	327.882	36.0845	-0.2468	0	-0.822816	-0.011456	2.04069	0.224584
10.02	-2.66964	401.291	-46.9727	-0.240477	0	-0.454626	0.00728732	-1.0954	0.128221	-2.04824	328.981	35.9466	-0.247173	0	-0.82266	-0.0127927	2.05472	0.224511
10.03	-2.2792	403.042	-46.7359	-0.241126	0	-0.454739	0.00642515	-1.13619	0.13175	-2.14379	329.832	35.8191	-0.247567	0	-0.822534	-0.0135034	2.07756	0.225619
10.04	-1.7209	404.075	-46.4258	-0.241834	0	-0.454844	0.00502691	-1.18034	0.135614	-2.10271	330.464	35.6978	-0.247989	0	-0.822432	-0.0134215	2.10934	0.227858
10.05	-0.993975	404.5	-46.0584	-0.242594	0	-0.454938	0.00301505	-1.22698	0.13971	-1.90748	330.911	35.5808	-0.248443	0	-0.822356	-0.0123906	2.14954	0.231126
10.06	-0.103038	404.452	-45.6522	-0.243395	0	-0.455021	0.000324849	-1.27513	0.143929	-1.54932	331.219	35.4695	-0.248925	0	-0.822303	-0.0102772	2.19711	0.235283
